<svg class="jandw-logo" width="63" height="42" viewBox="0 0 208 138" fill="none" xmlns="http://www.w3.org/2000/svg">
<path d="M55.3884 102.938C55.3884 110.308 52.0851 116.904 46.8822 121.319C42.7 124.868 37.2903 127.008 31.3821 127.008C18.2563 127.008 7.58787 116.289 7.37576 103.179L7.37528 103.155L7.2558 83.2012M55.3884 102.938L55.507 49.7442C55.507 42.3748 58.835 35.7787 64.0768 31.3636C68.2903 27.8145 73.7406 25.6744 79.693 25.6744C92.917 25.6744 103.662 36.2365 103.876 49.3461L103.879 49.7442M55.3884 102.938C55.602 116.048 66.59 126.767 79.8139 126.767C85.7664 126.767 91.2167 124.627 95.4301 121.078C100.672 116.663 104 110.067 104 102.698V3.77094L104.003 103.336C104.217 116.446 114.962 127.008 128.186 127.008C134.138 127.008 139.589 124.868 143.802 121.319C149.044 116.904 152.4 110.706 152.4 103.336C152.375 103.336 152.403 103.735 152.403 103.735L152.372 3.77094L152.375 103.336C152.589 116.446 163.334 127.008 176.558 127.008C182.511 127.008 187.961 124.868 192.174 121.319C197.416 116.904 200.772 110.706 200.772 103.336C200.747 103.336 200.769 3.77094 200.769 3.77094" stroke="#454545" stroke-width="12"/>
</svg>
